<?xml version="1.0" standalone="no"?>
<!DOCTYPE svg PUBLIC "-//W3C//DTD SVG 20010904//EN"
 "http://www.w3.org/TR/2001/REC-SVG-20010904/DTD/svg10.dtd">
<svg version="1.0" xmlns="http://www.w3.org/2000/svg"
 width="192.000000pt" height="192.000000pt" viewBox="0 0 192.000000 192.000000"
 preserveAspectRatio="xMidYMid meet">

<g transform="translate(0.000000,192.000000) scale(0.100000,-0.100000)"
fill="#000000" stroke="none">
<path d="M736 1424 c-32 -31 -11 -104 30 -104 11 0 14 -26 14 -144 l0 -144
-115 -185 c-66 -104 -118 -200 -121 -219 -4 -24 0 -47 15 -75 35 -70 54 -73
404 -73 268 0 306 2 336 18 50 25 74 63 74 115 0 38 -14 67 -121 237 l-122
195 0 138 c0 125 2 137 18 137 28 0 42 21 42 62 0 27 -5 40 -19 48 -12 6 -101
10 -220 10 -168 0 -202 -2 -215 -16z m284 -262 l0 -157 49 -80 50 -80 -156 -3
c-86 -1 -158 -1 -160 2 -2 2 16 37 41 77 l46 73 0 163 0 163 65 0 65 0 0 -158z"/>
</g>
</svg>
