<?xml version="1.0" standalone="no"?>
<!DOCTYPE svg PUBLIC "-//W3C//DTD SVG 20010904//EN"
 "http://www.w3.org/TR/2001/REC-SVG-20010904/DTD/svg10.dtd">
<svg version="1.0" xmlns="http://www.w3.org/2000/svg"
 width="192.000000pt" height="192.000000pt" viewBox="0 0 192.000000 192.000000"
 preserveAspectRatio="xMidYMid meet">

<g transform="translate(0.000000,192.000000) scale(0.100000,-0.100000)"
fill="#000000" stroke="none">
<path d="M520 1373 c-39 -14 -40 -27 -40 -372 0 -318 1 -337 21 -377 15 -31
32 -48 63 -63 41 -20 59 -21 439 -21 384 0 398 1 417 20 24 24 25 48 4 75 -14
19 -30 20 -417 25 l-402 5 -5 342 c-3 208 -9 346 -15 351 -14 14 -47 21 -65
15z"/>
<path d="M1300 1313 c-37 -13 -40 -32 -40 -265 0 -218 1 -229 21 -249 15 -15
28 -19 47 -14 50 12 52 22 52 265 0 166 -3 230 -12 242 -15 19 -47 28 -68 21z"/>
<path d="M940 1193 c-36 -13 -40 -34 -40 -205 0 -157 1 -169 21 -189 24 -24
65 -20 87 8 16 22 17 325 1 356 -19 35 -35 42 -69 30z"/>
<path d="M1120 1073 c-33 -12 -40 -36 -40 -145 0 -95 2 -110 20 -128 11 -11
29 -20 40 -20 11 0 29 9 40 20 18 18 20 33 20 128 -1 68 -5 113 -13 123 -14
19 -46 29 -67 22z"/>
<path d="M760 1013 c-31 -11 -40 -37 -40 -115 0 -65 3 -81 20 -98 26 -26 55
-25 81 1 19 19 21 30 17 104 -1 46 -7 88 -13 93 -14 14 -47 21 -65 15z"/>
</g>
</svg>
