<?xml version="1.0" standalone="no"?>
<!DOCTYPE svg PUBLIC "-//W3C//DTD SVG 20010904//EN"
 "http://www.w3.org/TR/2001/REC-SVG-20010904/DTD/svg10.dtd">
<svg version="1.0" xmlns="http://www.w3.org/2000/svg"
 width="192.000000pt" height="192.000000pt" viewBox="0 0 192.000000 192.000000"
 preserveAspectRatio="xMidYMid meet">

<g transform="translate(0.000000,192.000000) scale(0.100000,-0.100000)"
fill="#000000" stroke="none">
<path d="M467 1364 c-15 -8 -32 -26 -37 -40 -6 -14 -10 -160 -9 -332 l0 -307
88 175 c49 96 99 184 111 195 21 19 38 20 361 23 l339 3 0 49 c0 115 -27 130
-237 130 l-159 0 -59 60 -59 60 -156 0 c-119 -1 -161 -4 -183 -16z"/>
<path d="M667 1008 c-14 -11 -237 -445 -237 -462 0 -3 191 -6 423 -6 391 0
425 1 439 18 28 30 201 386 201 411 0 50 -8 51 -423 51 -293 0 -390 -3 -403
-12z"/>
</g>
</svg>
