<?xml version="1.0" standalone="no"?>
<!DOCTYPE svg PUBLIC "-//W3C//DTD SVG 20010904//EN"
 "http://www.w3.org/TR/2001/REC-SVG-20010904/DTD/svg10.dtd">
<svg version="1.0" xmlns="http://www.w3.org/2000/svg"
 width="192.000000pt" height="192.000000pt" viewBox="0 0 192.000000 192.000000"
 preserveAspectRatio="xMidYMid meet">

<g transform="translate(0.000000,192.000000) scale(0.100000,-0.100000)"
fill="#000000" stroke="none">
<path d="M601 1407 c-6 -8 -14 -27 -17 -43 -8 -43 -70 -77 -111 -62 -39 15
-58 6 -83 -34 -26 -43 -25 -64 5 -92 19 -18 25 -33 25 -68 0 -35 -6 -50 -25
-68 -30 -28 -31 -39 -5 -90 17 -33 25 -40 51 -40 17 0 38 4 47 9 28 15 85 -29
98 -75 11 -38 12 -39 63 -42 61 -4 76 6 85 51 7 38 70 79 102 66 46 -18 70
-10 92 30 28 50 28 59 -5 93 -37 38 -36 98 1 137 31 32 29 59 -8 106 -22 27
-26 29 -62 19 -52 -14 -110 16 -120 61 -3 17 -11 36 -16 43 -14 16 -103 16
-117 -1z m121 -234 c59 -56 18 -153 -64 -153 -82 0 -120 101 -57 154 41 35 84
34 121 -1z"/>
<path d="M1090 1059 c-53 -22 -76 -68 -51 -107 14 -23 -29 -89 -63 -96 -45 -9
-56 -24 -56 -76 0 -52 11 -67 57 -76 42 -8 66 -59 57 -122 -6 -47 -6 -47 34
-70 51 -28 63 -28 92 3 31 33 113 36 130 5 18 -33 56 -36 100 -6 41 27 49 50
30 87 -16 29 25 96 64 103 45 9 56 24 56 76 0 52 -11 67 -56 76 -44 9 -73 66
-60 118 10 36 8 40 -19 62 -46 36 -74 39 -104 10 -39 -37 -102 -38 -139 -3
-31 29 -35 30 -72 16z m204 -220 c35 -42 35 -87 -2 -122 -31 -29 -84 -36 -113
-14 -71 54 -36 167 52 167 29 0 43 -7 63 -31z"/>
</g>
</svg>
