<svg xmlns="http://www.w3.org/2000/svg" width="350" height="100" viewBox="0 0 350 100" fill="none"><path d="M87.9403 93.2795C84.038 93.2795 80.5754 92.675 77.5524 91.4109C74.5295 90.1469 72.0012 88.4432 69.9676 86.2999C67.8791 84.1565 66.3401 81.6834 65.2409 78.9905C64.1966 76.2426 63.647 73.4397 63.647 70.472V68.7683C63.647 65.6906 64.1966 62.8328 65.3508 60.03C66.4501 57.2821 68.0989 54.809 70.1875 52.6656C72.2761 50.5223 74.8593 48.8186 77.8272 47.6095C80.8502 46.4004 84.2029 45.7959 87.9953 45.7959C91.7877 45.7959 95.1404 46.4004 98.1633 47.6095C101.186 48.8186 103.714 50.5223 105.803 52.6656C107.892 54.809 109.486 57.2821 110.585 60.03C111.684 62.7779 112.234 65.6906 112.234 68.7683V70.472C112.234 73.4397 111.684 76.2426 110.64 78.9905C109.595 81.7383 108.002 84.1565 105.913 86.2999C103.824 88.4432 101.296 90.1469 98.3282 91.4109C95.2503 92.675 91.7877 93.2795 87.9403 93.2795ZM87.9403 83.552C90.7434 83.552 93.0518 82.9474 94.9755 81.7383C96.8991 80.5293 98.3282 78.8256 99.3175 76.7372C100.307 74.6488 100.801 72.2306 100.801 69.5927C100.801 66.8448 100.307 64.4266 99.2625 62.3382C98.2732 60.2498 96.7892 58.6011 94.8655 57.3371C92.9419 56.128 90.6335 55.5234 87.9403 55.5234C85.2471 55.5234 82.9387 56.128 81.0151 57.3371C79.0914 58.5461 77.6074 60.2498 76.5631 62.3382C75.5188 64.4266 75.0242 66.8448 75.0242 69.5927C75.0242 72.2856 75.5188 74.6488 76.5631 76.7372C77.5524 78.8256 79.0364 80.4743 80.9601 81.7383C82.7738 82.9474 85.1372 83.552 87.9403 83.552Z" fill="#032B3A"></path><path d="M135.867 93.2793C132.075 93.2793 128.722 92.6198 125.864 91.3008C123.006 89.9818 120.642 88.2232 118.719 86.0249C116.85 83.8266 115.421 81.3535 114.487 78.6056C113.552 75.8577 113.058 73.1098 113.058 70.252V68.7131C113.058 65.7454 113.552 62.9426 114.487 60.1397C115.421 57.3918 116.85 54.9187 118.719 52.7754C120.587 50.632 122.951 48.9283 125.699 47.6093C128.502 46.3453 131.69 45.6858 135.372 45.6858C140.154 45.6858 144.221 46.73 147.464 48.8184C150.707 50.9068 153.125 53.6547 154.774 57.0621C156.423 60.4695 157.247 64.1516 157.247 68.0537V72.1205H117.894V65.1409H150.102L146.585 68.6032C146.585 65.7454 146.2 63.3273 145.375 61.3488C144.551 59.3153 143.342 57.7765 141.638 56.6774C139.989 55.5782 137.901 55.0286 135.372 55.0286C132.844 55.0286 130.755 55.5782 128.997 56.7323C127.238 57.8864 125.919 59.5352 125.039 61.6785C124.16 63.8219 123.665 66.4049 123.665 69.4276C123.665 72.2305 124.105 74.7036 124.984 76.8469C125.864 78.9903 127.183 80.694 128.997 81.903C130.81 83.1121 133.064 83.7166 135.867 83.7166C138.67 83.7166 140.923 83.1671 142.682 82.013C144.441 80.9138 145.54 79.5398 146.035 77.8911H156.533C155.873 80.9688 154.609 83.6067 152.795 85.915C150.927 88.2232 148.563 89.9818 145.705 91.2459C142.792 92.6748 139.494 93.2793 135.867 93.2793Z" fill="#032B3A"></path><path d="M160.6 91.7407V47.3347H169.613V66.1303H169.394C169.394 59.7552 170.768 54.9189 173.461 51.6764C176.209 48.3789 180.221 46.7852 185.498 46.7852H187.146V56.6776H184.014C180.221 56.6776 177.253 57.7218 175.11 59.7552C173.021 61.7887 171.977 64.7564 171.977 68.6584V91.7957H160.6V91.7407Z" fill="#032B3A"></path><path d="M211.88 93.2798C206.603 93.2798 202.152 92.4555 198.524 90.7518C194.897 89.0481 192.148 86.7398 190.225 83.7721C188.301 80.8044 187.367 77.452 187.367 73.6599H198.744C198.744 75.2536 199.184 76.7925 200.063 78.2763C200.942 79.7602 202.316 80.9693 204.295 81.9035C206.219 82.8378 208.802 83.2775 211.935 83.2775C214.793 83.2775 217.156 82.8928 219.025 82.0684C220.949 81.2441 222.378 80.1998 223.257 78.8259C224.191 77.5069 224.631 75.9681 224.631 74.2644C224.631 72.121 223.752 70.4173 221.938 69.1533C220.124 67.8893 217.376 67.0649 213.584 66.7352L208.362 66.3505C202.646 65.8558 198.084 64.0972 194.677 61.0196C191.269 57.9419 189.565 53.875 189.565 48.7639C189.565 44.9718 190.445 41.6744 192.258 38.9265C194.072 36.1786 196.6 34.0352 199.843 32.5514C203.086 31.0675 206.878 30.2981 211.275 30.2981C215.782 30.2981 219.685 31.0675 222.982 32.6613C226.28 34.2551 228.808 36.4534 230.567 39.3112C232.381 42.169 233.26 45.5214 233.26 49.4234H221.883C221.883 47.7747 221.498 46.2908 220.674 44.8619C219.904 43.488 218.695 42.3339 217.156 41.5095C215.617 40.6851 213.639 40.2455 211.22 40.2455C208.912 40.2455 207.043 40.6302 205.504 41.3996C203.965 42.169 202.811 43.2132 202.042 44.5322C201.272 45.8512 200.887 47.2801 200.887 48.7639C200.887 50.6325 201.547 52.2263 202.921 53.6552C204.295 55.0291 206.439 55.8535 209.407 56.0733L214.628 56.568C218.86 56.8977 222.598 57.777 225.84 59.2609C229.083 60.7448 231.556 62.7232 233.315 65.2513C235.074 67.7794 235.953 70.8021 235.953 74.3194C235.953 78.0565 234.964 81.4089 232.985 84.2667C231.007 87.1245 228.204 89.3778 224.576 90.9166C221.059 92.5104 216.772 93.2798 211.88 93.2798Z" fill="#032B3A"></path><path d="M262.995 93.2795C259.093 93.2795 255.63 92.675 252.607 91.4109C249.584 90.1469 247.056 88.4432 245.022 86.2999C242.934 84.1565 241.395 81.6834 240.296 78.9905C239.251 76.2426 238.702 73.4397 238.702 70.472V68.7683C238.702 65.6906 239.251 62.8328 240.405 60.03C241.505 57.2821 243.154 54.809 245.242 52.6656C247.331 50.5223 249.914 48.8186 252.882 47.6095C255.905 46.4004 259.258 45.7959 263.05 45.7959C266.787 45.7959 270.195 46.4004 273.218 47.6095C276.241 48.8186 278.769 50.5223 280.858 52.6656C282.946 54.809 284.54 57.2821 285.639 60.03C286.739 62.7779 287.288 65.6906 287.288 68.7683V70.472C287.288 73.4397 286.739 76.2426 285.694 78.9905C284.65 81.7383 283.056 84.1565 280.968 86.2999C278.879 88.4432 276.351 90.1469 273.383 91.4109C270.305 92.675 266.897 93.2795 262.995 93.2795ZM262.995 83.552C265.798 83.552 268.106 82.9474 270.03 81.7383C271.954 80.5293 273.383 78.8256 274.372 76.7372C275.361 74.6488 275.856 72.2306 275.856 69.5927C275.856 66.8448 275.361 64.4266 274.317 62.3382C273.328 60.2498 271.844 58.6011 269.92 57.3371C267.997 56.128 265.688 55.5234 262.995 55.5234C260.302 55.5234 257.993 56.128 256.07 57.3371C254.146 58.5461 252.662 60.2498 251.618 62.3382C250.574 64.4266 250.079 66.8448 250.079 69.5927C250.079 72.2856 250.574 74.6488 251.618 76.7372C252.607 78.8256 254.091 80.4743 256.015 81.7383C257.883 82.9474 260.247 83.552 262.995 83.552Z" fill="#032B3A"></path><path d="M288.607 56.4026V48.049H317.132V56.4026H288.607ZM294.158 91.7405V46.2903C294.158 41.2342 295.587 37.4421 298.39 35.0239C301.193 32.6058 305.37 31.3967 310.867 31.3967H316.418V40.135H310.042C308.338 40.135 307.074 40.5747 306.14 41.509C305.26 42.3883 304.766 43.6523 304.766 45.3011V91.7405H294.158Z" fill="#032B3A"></path><path d="M318.562 55.6884V47.3348H350V55.6884H318.562ZM343.569 92.3453C339.502 92.3453 336.094 91.7957 333.456 90.7515C330.818 89.7073 328.839 87.8937 327.52 85.3657C326.201 82.8376 325.542 79.4302 325.542 75.0885L325.597 34.8594H336.259L336.204 75.858C336.204 78.0563 336.809 79.705 337.963 80.9141C339.117 82.0682 340.821 82.6727 343.02 82.6727H350V92.4003H343.569V92.3453Z" fill="#032B3A"></path><path d="M58.6997 55.3585C56.4462 52.5007 53.4233 50.4123 49.6859 48.9833C51.8844 47.7743 53.6981 46.1805 55.1821 44.3119C57.6554 41.1244 58.9196 36.8926 58.9196 31.5067V29.858C58.9196 23.6478 57.2707 18.6466 54.0279 14.7996L42.9805 24.0874C44.0248 26.0659 44.5744 28.4291 44.5744 31.177C44.5744 34.9691 43.5301 38.1017 41.4415 40.5198C39.353 42.938 36.0552 44.1471 31.5483 44.1471H14.1803V18.0421H31.5483C34.1865 18.0421 36.44 18.4817 38.2537 19.3061L48.9164 10.348C44.1897 7.54511 37.814 6.11621 29.7896 6.11621H14.1803H11.7619H0V93.8839H11.7619H14.1253H33.2522C39.7377 93.8839 45.124 92.9497 49.466 91.0811C53.8081 89.2125 57.0508 86.4646 59.1944 82.8924C61.3929 79.2651 62.4371 74.9784 62.4371 69.8673V68.2186C62.4921 62.8327 61.228 58.4911 58.6997 55.3585ZM44.6294 78.4957C42.266 80.8589 38.9682 82.068 34.7362 82.068H14.1803V55.4684H34.7362C39.0782 55.4684 42.4309 56.6225 44.7393 58.9857C47.0477 61.3489 48.2019 64.5914 48.2019 68.7682C48.1469 72.89 46.9378 76.1325 44.6294 78.4957Z" fill="#032B3A"></path><path d="M43.3657 60.085C41.2771 57.9966 38.3092 56.9524 34.3519 56.9524H15.8296V80.914H34.3519C38.1992 80.914 41.1672 79.8698 43.3107 77.7265C45.3993 75.5831 46.4436 72.6703 46.4436 68.9332C46.4436 65.1411 45.4543 62.1734 43.3657 60.085ZM22.6999 61.7887C22.535 60.7445 23.4144 59.8652 24.4587 60.03C25.1182 60.14 25.6129 60.6346 25.7228 61.2941C25.8877 62.3383 25.0083 63.2176 23.964 63.0527C23.3594 62.9428 22.8098 62.4482 22.6999 61.7887ZM25.5029 71.2964C24.8434 71.1865 24.2938 70.6369 24.1839 69.9774C24.019 68.9332 24.9533 67.9989 25.9976 68.1638C26.6572 68.2737 27.2068 68.8233 27.3167 69.4828C27.4816 70.5819 26.5472 71.4613 25.5029 71.2964ZM32.3183 63.6023C32.1534 62.8329 32.8129 62.2284 33.5824 62.3383C34.0221 62.3932 34.3519 62.7779 34.4068 63.1626C34.5717 63.932 33.9122 64.5366 33.1427 64.4267C32.758 64.3168 32.3732 63.987 32.3183 63.6023ZM35.1763 73.0001C34.2969 72.8352 33.5824 72.1208 33.4175 71.2414C33.1427 69.6477 34.4618 68.3287 36.0557 68.6035C36.9351 68.7683 37.6496 69.4828 37.8145 70.3621C38.0893 71.9559 36.7152 73.3298 35.1763 73.0001Z" fill="#0A8EC7"></path><path d="M43.2555 30.5175C43.2005 30.5175 43.0906 30.4625 42.8708 30.4625C42.4311 30.4076 41.9914 30.3526 41.5517 30.2977C41.112 30.2977 40.6723 30.2977 40.2875 30.3526C39.7379 30.4076 39.2432 30.5175 38.7486 30.6274C38.2539 30.7373 37.7043 30.8472 37.2096 30.9022C36.5501 30.9572 35.8905 31.0121 35.231 30.9022C34.7913 30.8472 34.3516 30.7923 33.9119 30.6824C33.4172 30.5725 32.9226 30.4625 32.4279 30.3526C31.9882 30.2427 31.4936 30.1877 30.9989 30.1877C30.4493 30.1877 29.8997 30.1877 29.405 30.2977C28.8554 30.4076 28.3607 30.5175 27.8111 30.6824C27.3714 30.7923 26.8767 30.9022 26.3821 31.0121C25.9424 31.0671 25.4477 31.122 24.9531 31.122C24.5683 31.122 24.1836 31.0671 23.7988 31.0121C23.2492 30.9572 22.8095 30.7923 22.2599 30.6824C21.8202 30.5725 21.4355 30.5175 20.9958 30.4076C20.3362 30.2977 19.6767 30.2977 18.9622 30.3526C18.5225 30.4076 18.1377 30.5175 17.753 30.6274C17.3133 30.7373 16.9286 30.8472 16.4889 30.9572C15.9942 31.0671 15.8843 31.122 15.8843 31.122V42.6082H31.5485C35.6157 42.6082 38.5837 41.5091 40.5074 39.3657C42.3761 37.1674 43.3654 34.3645 43.3654 30.9572C43.2555 30.9022 43.2555 30.7373 43.2555 30.5175ZM22.5897 37.4971C21.8752 37.4971 21.3255 36.9476 21.3255 36.2331C21.3255 35.5187 21.8752 34.9691 22.5897 34.9691C23.3042 34.9691 23.8538 35.5187 23.8538 36.2331C23.7988 36.9476 23.2492 37.4971 22.5897 37.4971ZM30.7791 33.1555C30.7791 32.6608 31.2188 32.2212 31.7134 32.2212C32.2081 32.2212 32.6478 32.6608 32.6478 33.1555C32.6478 33.6501 32.2081 34.0898 31.7134 34.0898C31.2188 34.0898 30.7791 33.705 30.7791 33.1555ZM34.0768 40.7946C33.0325 40.7946 32.2081 39.9703 32.2081 38.9261C32.2081 37.8819 33.0325 37.0575 34.0768 37.0575C35.1211 37.0575 35.9455 37.8819 35.9455 38.9261C35.9455 39.9703 35.1211 40.7946 34.0768 40.7946Z" fill="#0A8EC7"></path><path d="M27.8662 28.8133C27.4266 29.1429 26.8222 29.033 26.4925 28.5936C26.1628 28.1541 26.2727 27.5498 26.7123 27.2202C27.1518 26.8906 27.7563 27.0005 28.086 27.4399C28.3607 27.8794 28.3057 28.4837 27.8662 28.8133Z" fill="#0A8EC7"></path><path d="M54.5231 9.30387C54.5231 10.3481 53.6986 11.1724 52.6544 11.1724C51.6101 11.1724 50.7856 10.3481 50.7856 9.30387C50.7856 8.25967 51.6101 7.4353 52.6544 7.4353C53.6986 7.4353 54.5231 8.25967 54.5231 9.30387Z" fill="#0A8EC7"></path><path d="M37.7593 27.8794C36.9898 28.1542 36.1654 27.7146 35.9455 26.9452C35.6707 26.1758 36.1104 25.3514 36.8799 25.1316C37.6494 24.8568 38.4738 25.2964 38.6936 26.0658C38.9135 26.8352 38.4738 27.6596 37.7593 27.8794Z" fill="#0A8EC7"></path><path d="M48.7516 16.7779C48.5867 17.2175 48.0371 17.4372 47.6524 17.1625C47.3776 16.9977 47.2676 16.668 47.3776 16.3933C47.5425 15.9537 48.0371 15.7339 48.4768 16.0086C48.6966 16.1735 48.8066 16.5031 48.7516 16.7779Z" fill="#0A8EC7"></path><path d="M44.5749 20.0207C44.1901 21.2847 42.7062 21.7793 41.6069 21.0649C40.9474 20.6252 40.6726 19.7459 40.8924 18.9765C41.2771 17.7124 42.7611 17.2178 43.8604 17.9323C44.5199 18.3719 44.7947 19.2513 44.5749 20.0207Z" fill="#0A8EC7"></path></svg>