<svg width="1080" height="1080" viewBox="0 0 1080 1080" fill="none" xmlns="http://www.w3.org/2000/svg"><path d="M731.634 576.91C715.082 556.642 693.315 541.272 668.677 532.457C683.506 524.195 696.553 513.079 707.065 499.75C724.57 477.639 733.323 447.734 733.323 410.037V398.521C733.323 355.27 721.947 320.184 699.196 293.261L621.959 358.137C629.498 373.531 633.199 390.522 632.746 407.657C632.746 434.222 625.427 455.975 610.788 472.917C596.149 489.859 573.117 498.291 541.689 498.215H420.537V316.409H541.651C557.691 315.948 573.641 318.96 588.408 325.238L662.765 262.858C629.649 243.254 585.094 233.452 529.098 233.452H321.803V846.548H554.089C599.463 846.548 637.212 840.047 667.334 827.047C697.455 814.046 720.143 794.967 735.396 769.81C750.597 744.653 758.198 714.378 758.198 678.984V667.468C758.198 629.233 749.343 599.047 731.634 576.91ZM633.322 738.716C617.02 755.299 593.987 763.591 564.223 763.591H420.537V577.755H564.07C594.473 577.755 617.698 585.906 633.744 602.208C649.79 618.51 657.813 641.325 657.813 670.654C657.813 699.445 649.649 722.132 633.322 738.716Z" fill="white"></path><path d="M624.531 609.925C610.071 595.21 589.124 587.852 561.689 587.852H432.283V755.531H561.689C588.561 755.531 609.406 748.045 624.147 733.112C638.888 718.179 646.22 697.68 646.22 671.691C646.22 645.703 639.003 624.666 624.531 609.925ZM480.383 622.017C480.031 619.782 480.396 617.492 481.426 615.477C482.456 613.462 484.097 611.825 486.115 610.8C488.133 609.776 490.424 609.417 492.658 609.775C494.893 610.133 496.956 611.19 498.553 612.794C500.15 614.397 501.197 616.466 501.546 618.702C501.894 620.938 501.525 623.226 500.492 625.24C499.459 627.253 497.815 628.888 495.796 629.909C493.776 630.93 491.485 631.285 489.251 630.923C487.023 630.562 484.966 629.507 483.374 627.908C481.781 626.308 480.735 624.247 480.383 622.017ZM499.577 688.467C497.566 688.144 495.683 687.272 494.136 685.947C492.589 684.621 491.439 682.894 490.811 680.956C490.184 679.018 490.104 676.945 490.58 674.964C491.057 672.984 492.071 671.174 493.512 669.733C494.952 668.293 496.763 667.278 498.743 666.802C500.723 666.325 502.797 666.405 504.735 667.033C506.673 667.66 508.4 668.811 509.725 670.358C511.051 671.905 511.923 673.788 512.246 675.799C512.498 677.504 512.352 679.245 511.817 680.883C511.282 682.522 510.375 684.014 509.165 685.243C507.955 686.471 506.477 687.401 504.847 687.961C503.216 688.52 501.478 688.694 499.769 688.467H499.577ZM547.217 634.455C546.929 632.912 547.142 631.317 547.823 629.903C548.505 628.49 549.62 627.33 551.006 626.594C552.393 625.858 553.978 625.584 555.531 625.811C557.084 626.039 558.524 626.756 559.641 627.859C560.758 628.962 561.494 630.392 561.741 631.942C561.988 633.492 561.735 635.08 561.017 636.476C560.299 637.872 559.154 639.002 557.749 639.702C556.344 640.401 554.752 640.634 553.206 640.367C551.758 640.075 550.432 639.356 549.399 638.302C548.365 637.248 547.672 635.907 547.409 634.455H547.217ZM567.025 700.367C564.258 699.813 561.694 698.518 559.605 696.62C557.517 694.722 555.982 692.293 555.167 689.592C554.351 686.89 554.283 684.018 554.972 681.281C555.661 678.545 557.08 676.046 559.077 674.053C561.075 672.06 563.576 670.646 566.314 669.963C569.052 669.28 571.924 669.353 574.624 670.175C577.324 670.996 579.75 672.536 581.643 674.628C583.537 676.721 584.826 679.288 585.375 682.056C585.923 684.561 585.836 687.163 585.12 689.625C584.404 692.088 583.084 694.331 581.278 696.152C579.473 697.973 577.24 699.312 574.784 700.049C572.328 700.785 569.726 700.894 567.217 700.367H567.025Z" fill="white"></path><path d="M623.648 403.703C623.648 403.703 622.573 403.435 620.922 403.166C614.884 402.037 608.708 401.843 602.611 402.59C598.772 403.012 595.279 403.742 591.747 404.433C588.215 405.124 584.607 405.891 580.845 406.352C576.216 406.889 571.539 406.889 566.91 406.352C563.724 406.007 560.653 405.431 557.659 404.817C554.664 404.202 550.787 403.281 547.255 402.628C543.999 402.004 540.702 401.62 537.39 401.477C533.61 401.355 529.828 401.625 526.104 402.283C522.265 402.936 518.695 403.895 515.125 404.778C511.555 405.661 508.675 406.429 505.259 407.043C502.002 407.62 498.7 407.902 495.393 407.888C492.654 407.874 489.919 407.643 487.216 407.197C483.378 406.659 480.115 405.815 476.66 405.047C473.205 404.279 470.863 403.742 467.792 403.281C463.142 402.552 458.413 402.474 453.742 403.051C450.91 403.471 448.103 404.047 445.335 404.778C442.341 405.584 439.5 406.467 436.583 407.273C433.665 408.08 432.475 408.348 432.283 408.425V488.886H541.497C569.904 488.886 590.723 481.209 603.955 465.854C617.186 450.498 623.801 430.997 623.801 407.35C623.801 406.198 623.686 404.932 623.648 403.703ZM479.193 452.456C477.468 452.456 475.782 451.944 474.348 450.985C472.914 450.026 471.797 448.662 471.139 447.068C470.481 445.473 470.31 443.719 470.65 442.028C470.989 440.336 471.823 438.784 473.045 437.567C474.268 436.349 475.824 435.523 477.517 435.191C479.21 434.859 480.963 435.037 482.555 435.702C484.146 436.368 485.505 437.491 486.458 438.929C487.41 440.367 487.915 442.055 487.907 443.78C487.907 444.923 487.682 446.054 487.243 447.109C486.805 448.164 486.163 449.123 485.353 449.929C484.543 450.735 483.582 451.373 482.525 451.807C481.468 452.24 480.336 452.461 479.193 452.456ZM536.775 422.053C536.775 420.77 537.156 419.515 537.869 418.448C538.582 417.382 539.595 416.55 540.78 416.059C541.966 415.568 543.27 415.44 544.529 415.69C545.787 415.94 546.943 416.558 547.85 417.465C548.758 418.373 549.376 419.529 549.626 420.787C549.876 422.046 549.748 423.35 549.257 424.535C548.766 425.721 547.934 426.734 546.867 427.447C545.8 428.16 544.546 428.54 543.263 428.54C541.542 428.54 539.892 427.857 538.676 426.64C537.459 425.424 536.775 423.773 536.775 422.053ZM559.808 475.297C557.196 475.297 554.643 474.522 552.472 473.071C550.3 471.62 548.607 469.558 547.608 467.145C546.609 464.732 546.347 462.077 546.857 459.515C547.366 456.954 548.624 454.601 550.471 452.754C552.317 450.907 554.67 449.649 557.232 449.14C559.794 448.63 562.449 448.892 564.862 449.891C567.275 450.891 569.337 452.583 570.788 454.755C572.239 456.927 573.014 459.48 573.014 462.092C573.014 465.594 571.622 468.953 569.146 471.429C566.669 473.906 563.311 475.297 559.808 475.297Z" fill="white"></path><path d="M516.162 391.572C515.068 392.38 513.759 392.844 512.401 392.907C511.042 392.97 509.696 392.628 508.532 391.926C507.368 391.223 506.438 390.191 505.861 388.96C505.284 387.729 505.085 386.354 505.289 385.01C505.493 383.666 506.092 382.413 507.009 381.409C507.926 380.405 509.12 379.695 510.44 379.37C511.761 379.046 513.148 379.12 514.426 379.583C515.704 380.047 516.816 380.879 517.621 381.975C518.688 383.445 519.133 385.277 518.86 387.073C518.587 388.869 517.618 390.486 516.162 391.572Z" fill="white"></path><path d="M702.612 255.254C702.612 257.836 701.846 260.359 700.412 262.506C698.978 264.652 696.939 266.325 694.554 267.313C692.17 268.301 689.545 268.559 687.013 268.055C684.482 267.552 682.156 266.309 680.331 264.483C678.505 262.658 677.262 260.332 676.759 257.801C676.255 255.269 676.513 252.644 677.501 250.26C678.489 247.875 680.162 245.836 682.308 244.402C684.455 242.968 686.978 242.202 689.56 242.202C691.274 242.202 692.971 242.54 694.554 243.196C696.138 243.852 697.577 244.813 698.789 246.025C700.001 247.237 700.962 248.676 701.618 250.26C702.274 251.843 702.612 253.54 702.612 255.254Z" fill="white"></path><path d="M585.221 385.277C583.324 385.898 581.285 385.943 579.362 385.406C577.439 384.869 575.719 383.774 574.418 382.259C573.118 380.744 572.296 378.878 572.056 376.896C571.816 374.914 572.169 372.905 573.07 371.124C573.972 369.342 575.381 367.868 577.12 366.888C578.859 365.907 580.85 365.464 582.841 365.615C584.831 365.766 586.733 366.503 588.304 367.734C589.876 368.966 591.047 370.635 591.67 372.532C592.084 373.792 592.246 375.122 592.146 376.444C592.046 377.767 591.686 379.057 591.087 380.241C590.488 381.424 589.662 382.478 588.655 383.342C587.649 384.206 586.482 384.864 585.221 385.277Z" fill="white"></path><path d="M662.076 307.502C661.775 308.504 661.165 309.386 660.333 310.02C659.501 310.654 658.49 311.008 657.444 311.031C656.398 311.055 655.371 310.747 654.512 310.151C653.652 309.555 653.003 308.703 652.657 307.715C652.312 306.728 652.288 305.656 652.59 304.654C652.891 303.653 653.502 302.772 654.334 302.139C655.167 301.506 656.179 301.152 657.225 301.13C658.271 301.107 659.297 301.416 660.156 302.013C661.005 302.616 661.646 303.469 661.99 304.452C662.334 305.435 662.364 306.501 662.076 307.502Z" fill="white"></path><path d="M632.978 330.188C632.184 332.91 630.545 335.309 628.297 337.038C626.05 338.767 623.31 339.735 620.475 339.804C617.641 339.872 614.858 339.037 612.529 337.419C610.201 335.8 608.448 333.483 607.523 330.802C606.599 328.122 606.552 325.216 607.389 322.507C608.225 319.798 609.902 317.425 612.177 315.732C614.452 314.039 617.206 313.114 620.042 313.09C622.877 313.066 625.647 313.946 627.949 315.6C630.193 317.213 631.882 319.482 632.783 322.095C633.683 324.707 633.752 327.535 632.978 330.188Z" fill="white"></path></svg>