<?xml version="1.0" standalone="no"?>
<!DOCTYPE svg PUBLIC "-//W3C//DTD SVG 20010904//EN"
 "http://www.w3.org/TR/2001/REC-SVG-20010904/DTD/svg10.dtd">
<svg version="1.0" xmlns="http://www.w3.org/2000/svg"
 width="192.000000pt" height="192.000000pt" viewBox="0 0 192.000000 192.000000"
 preserveAspectRatio="xMidYMid meet">

<g transform="translate(0.000000,192.000000) scale(0.100000,-0.100000)"
fill="#000000" stroke="none">
<path d="M393 1430 c-43 -18 -38 -91 7 -105 19 -6 20 -15 20 -282 0 -187 4
-289 12 -316 24 -80 115 -137 193 -123 28 6 33 12 38 42 3 20 31 76 61 126
l56 90 0 229 0 229 24 10 c13 5 27 18 30 28 9 27 -12 69 -38 76 -34 9 -379 6
-403 -4z m267 -200 l0 -90 -60 0 -60 0 0 90 0 90 60 0 60 0 0 -90z"/>
<path d="M920 1420 c-11 -11 -20 -29 -20 -40 0 -21 33 -60 50 -60 6 0 10 -54
10 -142 l0 -143 -116 -189 c-64 -104 -118 -204 -121 -221 -7 -40 20 -98 55
-122 24 -16 58 -18 345 -21 307 -3 320 -2 362 18 35 17 47 30 61 65 22 58 19
66 -115 285 l-111 180 0 145 c0 145 0 146 24 155 13 5 27 18 30 28 9 27 -12
69 -38 76 -11 3 -105 6 -208 6 -175 0 -189 -1 -208 -20z m280 -257 l1 -158 49
-80 49 -80 -80 -3 c-43 -2 -115 -2 -159 0 l-80 3 47 75 48 75 3 163 3 162 60
0 59 0 0 -157z"/>
</g>
</svg>
